<mxfile host="app.diagrams.net" agent="Mozilla/5.0 (X11; Linux x86_64; rv:139.0) Gecko/20100101 Firefox/139.0" version="27.1.4">
  <diagram name="Page-1" id="0qIusmKTSO1WyaXug_DR">
    <mxGraphModel dx="872" dy="456" grid="1" gridSize="10" guides="1" tooltips="1" connect="1" arrows="1" fold="1" page="1" pageScale="1" pageWidth="850" pageHeight="1100" math="0" shadow="0">
      <root>
        <mxCell id="0" />
        <mxCell id="1" parent="0" />
        <mxCell id="DKp_g7tnoRcjDjKJbwzC-1" value="" style="shape=mxgraph.networks2.icon;aspect=fixed;fillColor=#EDEDED;strokeColor=#000000;gradientColor=#5B6163;network2IconShadow=1;network2bgFillColor=none;network2Icon=mxgraph.networks2.antenna;network2IconYOffset=0.0004;network2IconW=0.508;network2IconH=0.9997;" vertex="1" parent="1">
          <mxGeometry x="40" y="50" width="80" height="157.43" as="geometry" />
        </mxCell>
        <mxCell id="DKp_g7tnoRcjDjKJbwzC-2" value="" style="shape=image;verticalLabelPosition=bottom;verticalAlign=top;imageAspect=0;aspect=fixed;image=data:image/jpeg,/9j/4AAQSkZJRgABAQEAAAAAAAD/4QBCRXhpZgAATU0AKgAAAAgAAYdpAAQAAAABAAAAGgAAAAAAAkAAAAMAAAABACYAAEABAAEAAAABAAAAAAAAAAAAAP/bAEMACwkJBwkJBwkJCQkLCQkJCQkJCwkLCwwLCwsMDRAMEQ4NDgwSGRIlGh0lHRkfHCkpFiU3NTYaKjI+LSkwGTshE//bAEMBBwgICwkLFQsLFSwdGR0sLCwsLCwsLCwsLCwsLCwsLCwsLCwsLCwsLCwsLCwsLCwsLCwsLCwsLCwsLCwsLCwsLP/AABEIAf4B2gMBIgACEQEDEQH/xAAfAAABBQEBAQEBAQAAAAAAAAAAAQIDBAUGBwgJCgv/xAC1EAACAQMDAgQDBQUEBAAAAX0BAgMABBEFEiExQQYTUWEHInEUMoGRoQgjQrHBFVLR8CQzYnKCCQoWFxgZGiUmJygpKjQ1Njc4OTpDREVGR0hJSlNUVVZXWFlaY2RlZmdoaWpzdHV2d3h5eoOEhYaHiImKkpOUlZaXmJmaoqOkpaanqKmqsrO0tba3uLm6wsPExcbHyMnK0tPU1dbX2Nna4eLj5OXm5+jp6vHy8/T19vf4+fr/xAAfAQADAQEBAQEBAQEBAAAAAAAAAQIDBAUGBwgJCgv/xAC1EQACAQIEBAMEBwUEBAABAncAAQIDEQQFITEGEkFRB2FxEyIygQgUQpGhscEJIzNS8BVictEKFiQ04SXxFxgZGiYnKCkqNTY3ODk6Q0RFRkdISUpTVFVWV1hZWmNkZWZnaGlqc3R1dnd4eXqCg4SFhoeIiYqSk5SVlpeYmZqio6Slpqeoqaqys7S1tre4ubrCw8TFxsfIycrS09TV1tfY2dri4+Tl5ufo6ery8/T19vf4+fr/2gAMAwEAAhEDEQA/APXKKKKACiiigAooooAKKKKACiioLm7htly5y5+6g+8aTdtWVGMpvlirsnJVQSxAA5JPAFZ1xqsSZWAeY3948IP61m3F3Pcn52wnZF+6PrVeueVVv4T2qGXxWtXXyJprme4OZGBx0AAAFRpJJGwdDhgcg4B/nTaKxu9z01CKXKlodFZXX2qIsQA6EK4HT6irNZGkA77g842qPbOa167KbbjdnzOKpxp1XGOwUUUVZzBRRRQAUUUUAFFFFABRRRQAUUUUAFFFFABRRRQAUUUUAFFFFABRRRQAUUUUAFFFFABRRRQAyWRYY5JW6IpJ9/auduLmW4cu+AP4VAHyj0zWxqYJtHxnhkJx6Z71g1zVpO9j28upR5XU6j0lkjYOjYYdDgH+daUGrMMLcJkf306/itZVFZRk47HfVoU6q99HURyxTKHjcMvt2+op9cvFLLCweNyre3Q+xFbVpqEc+EkwkvQf3W+hrphUUtGeLiMDKl70dUXqKKK1PPCiiigAooooAKKKKACiiigAooooAKKKKACiiigAooqpe3i2yYXBmcfIPQf3jSbSV2XTpyqSUY7iXt8lsNiYaYjgdlHq1YTu8jM7sWZjkk0jMzFmYksxySepJpK45zcmfS4fDRoRst+4UUVNb209y2Ix8o+85+6tSlfY3lJRV5PQhqzBZXU5GEKof43GBj2HWte3sLaDBI8yT+846fQVbreNHueTWzLpSXzIba3S2iEa885Zj1YnvU1FFbpW0R5EpOT5pbhRRRTJCiiigAooooAKKKKACiiigAooooAKKKKACiiigAooooAKKKKACiiigAooooAKKKKACiiigBGVXVlYZVgQQe4NYdxps8RJiBkj6jH3h9RW7RUSgpbnTQxE6D905QggkEEEdQRg0V0s9tb3AxIgJ7MOGH41jXVhNb5ZcvF/eA5X/eFc8qbie1QxsKuj0ZTooorI7jVsdQPyw3DeySH+TVrVyla2nXudtvM3PSJj3/2T/SuinU6M8fGYP/l5T+aNWiiiug8YKKKKACiiigAooooAKKKKACiiigAoopGZVVmYgKoJJPYCgCG6uEtoi55Y8Iv95q52SSSV2kc5Zjkn+gqa7uWuZS3OxeIx6D1/Gq9cdSfMz6TB4b2MLvdhRRVuys2uXy2RCh+c+p/uioSbdkdVSpGnFylsLZWL3J3vlYQeT3Y+i1uoiRqqIoVV4AFKqqqqqgBVGAB0AFLXZCCifN4jEyry127BRRRVnKFFFFABRRRQAUUUUAFFFFABRRRQAUUUUAFFFFABRRRQAUUUUAFFFFABRRRQAUUUUAFFFFABRRRQAUUUUAFFFFABRRRQBk32nfemtx7vGP5rWVXV1k6jZY3XEI46yqP/AEIf1rnqU+qPZweMv+7qP0ZlUUUVznsG5p9556+VIf3qDg/319frV+uWjd4nSRDhlOQa6S2nS4iWRep4Yf3WHUV1U53VmeBjsN7OXPHZktFFFbHmhRRRQAUUUUAFFFFABRRRQAVk6pc9LZD6NLj9FrRuJlt4nlbsPlHqx6CuadmdmdjlmJYn3NY1ZWVj1Mvoc8vaS2X5iUUUAEkADJJwAO5Ncp7pLbwPcSrGvflj/dUdTXSRxpEixoMKowP8TVeytRbRAH/WPgyH+g+lWq66cOVXPnMZiPbTtHZBRRRWpwhRRRQAUU15I4kaSR1REGWZiAoHuTXN33iqGMvHYReawyPNlyI/qqjk/pWc6kaavJnZhcFXxcrUY3/L7zpqK82n1bVrli0l3MMnO2NiiD6Ba29A1u7e5Syu5GlWbiGRsF0cDOCe4NYQxUZS5bHrYjIK9Gi6vMnbVo66iiius+dCiiigAooooAKKKKACiiigAooooAKKKKACiiigAooooAKKKKACiiigAoorE8QatLp0MUVvxcXG4q5AIjRepwe/pUTmoR5mdGGw88TVVKnuzborzQanqocyC9ud5OSfMPP4dK2rLxXcR7UvohKvTzYsLIPcr0P6VzRxcG7PQ9uvw9iaceaDUvLZ/idjRUFpeWl7EJbaVXTvjhlPoynkVPXWmmro+enCUJOMlZoKKKKZIUUUUAYWoWnkSeYg/dSHoP4W9P8ACqNdRLEk0bxuMqwx9PcVzc8LwSvE/VTwfUHoa5KkOV3R9DgcT7WPJLdEdW7C5NvMNx/dyYV/QejVUorNOzujtqQVSLjLZnV0VR02586Ly2P7yIAe5XsavV3Rd1c+Vq03Sm4PoFFFFMzCiiigAooooAKKKiuJhBDJKf4R8o9WPAFDdioxcmkjJ1SfzJRCp+WL73u5/wAKz6UksWYnJYkk+pPNJXDJ8zufVUaapQUF0CtHS7bzJDO4+SM4TPd/X8KoIjSOiKMs7BR+NdNDEkMcca9FGPqe5q6Ubu5x4+v7OHIt2PooorrPnwooooAKp6hqNpp0Jlnbk5Eca/fkb0A/nSanqNvptu00nLnKwxg8yP6fT1rz27u7q+mee4cs7dB/Ci/3VHpXLXrqnotz3cqymWMftKmkF+Pp/mWNR1W+1JyZn2wg5SFMhF+vqaoUVNbWt1eSrDbRNI5646KPVieAK8puU3rqz76MKeHp2ilGK+4hrZ8O2M1zfwThWEFsxkeTou8D5VBrZsfC1pEEe+czScExoSsQPoe5roYooYUWOGNI414VUAVR+Arto4WV1KZ8zmOe0nCVLD6t6X6fIfRRRXpHxQUUUUAFFFFABRRRQAUUUUAFFFFABRRRQAUUUUAFFFFABRRRQAUUUUAFcx4rsZ5VtryJWdYVeOYKM7EJ3Bsfzrp6CAcg8g8HNZ1IKpFxZ14PFSwlaNaKvY8porvb7w5pd3ueNTbzHndDgIT7p0/lXI6hpV9pr4mTdEThJkyY2+voa8mpQnT1ex+g4LNsPjPdi7S7P9O5Wtrq6s5RNbStHIOpHRh6MOhFdvo+uQaioil2x3ijlM/LIB/Emf1FcFSqzoyujMroQyspwVI7giilWlTemxWYZbSxsfe0l0f9bo9VorC0LWhfp9muWAvIxwegmQfxD39a3a9eE1NcyPznE4aphqjpVFqgoooqznCqGpW3mxeao/eRAk+6dxV+ilJcysaUqjpTU10OUoqze2/2ed1A+R/nT6Ht+FVq4WrOx9XCanFSXUmtpjbzRydgcOPVTwa6UEEAg5BAIPsa5StzTJ/MhMTH5ouB7oelbUZa2PLzGjeKqLoX6KKK6TxAooooAKKKKACsfVpsvHADwo3v9T0rXZgqszcBQWP0HNcxNIZZZJD1difoOwrGtKysell1Lmqc76DKKKACSAOSSAB7niuU9809Kg3O87DhPkT/AHj1NbFR28QghiiH8KjPu3UmpK7YR5VY+WxNX2tRy6BRRRVnOFRXNzDaQTXEzbY4lLN6n0A9zUtcN4i1U3lwbWFv9GtmIYjpJKOCfoOgrGtVVONz0stwMsbWUOi3fkZuoX9xqNy9xMcDlYk/hjTsB/WqlFWrCxuNRuUt4eM/NI5+7Gg6sf6V42s5ebP0n93h6faMV9yJdM0u61ObZH8sSEedKR8qA9h6mu+srG1sIVgt0Cgcsx++7f3mNLZ2dvY28dvAuEQcn+J2PVmPqasV69Cgqau9z89zPNJ42fLHSC2X6v8ArQKKKK6DxgooooAKKKKACiiigAooooAKKKKACiiigAooooAKKKKACiiigAooooAKKKKACiiigApskccqPHIiujgqysMgg+oNOooGm07o4fWtBksd9zagvaE5ZerQ59f9msGvVWVXVlYBlYFWBGQQeCCK4PXNHbTpfNhBNnMx2f8ATJjzsPt6V5eIw/L70dj7nJs2df8AcV373R9/+D+ZkRySQyRyxMUkjYMjLwQRXoWjaomp2oc4FxFhJ0H97swHoa87q5p1/Np11HcR5K/dmTs8Z6j/AArKhW9nLXY9DNcvWNpe78a2/wAvmelUUyGaK4iimibdHKgdCO4NPr2dz82acXZhRRRQIpalB50BdR88Xzj3XuKwa6vrwa5u7h8i4lj/AIc7k/3W5Fc1aPU9rLa106bIKsWU3kXETZ+Vjsf6NxVeisU7O56s4qcXF9Tq6Kr2U3n28TE/MBsf/eXirFdyd1c+SnFwk4voFFFFMkKKKKAKOpy+Xb7AeZW2/wDARyawqv6pLvuAg6RKB/wJuT/SqFcdR3kfS4KnyUV56hV3TYfNuAxHyxDefr0FUq3dMi8u2DkfNKS5+g4FFON5Bjavs6Ttu9C9RRRXYfNBRRQSBknoOTQBka/qP2CzZY2xcXGY4vVR/E/4VwFaGs3xv7+eUHMUZ8qD02KcZ/HrWfXjYip7Sfkj9LynBfVMOk/ilq/8vkKqs7KqgszEKoHUknAAr0LRdMXTbUBgDczYedvQ9kB9BXP+F9O86dr+Vf3UB2w5HDS92/CuzrqwlKy52eBxBj3KX1WD0W/r2+X9bBRRRXefJhRRRQAUUUUAFFFFABRRRQAUUUUAFFFFABRRRQAUUUUAFFFFABRRRQAUUUUAFFFFABRRRQAUUUUAFQ3VtDdwTW8y5jlUqfUHsR7ipqKTV9GVGTg1KLs0eZX1nNYXMttL1Q5VuzoejCq1dz4k037Xa/aYlzPagtx1eLqy/h1FcNXi1qfs5W6H6blmNWMoKb+JaP1/4J1PhbUcF9Olbg5ktifXqyf1FdbXlkUskMkU0ZxJE6uhHYqc16XZXUd7a29ynSVAxH91ujL+BruwlTmjyPofLcQYL2VVYiG0t/X/AIP+ZYooortPmQrM1aHKRzgcodjfQ9K06ZNGJYpYz0dSPx7GplHmVjfD1PZVFI5eiggqSp6gkH6jiiuE+qNLSZdskkJPDruX/eWtmuYgkMM0Mn91wT9OhrpwQQCOh5FdVF3VjwMxp8tRSXUKKKK2PNCkZgqsx6KCx+g5paqahJ5drL6viMf8CpN2Vy6cOeaj3MGRzJJJIersW/M02iiuA+uSsrIciGR0QdXYKPxOK6hFCIiDoqhR+AxWHpkW+5DHpEpb8TwK3a6aK0ueHmVS81DsFFFFbnlBWP4ivjZ2DohxNdEwpjqFI+Zvy/nWxXB+JLz7TqLRKcx2i+SPTeeXP9PwrnxE+SD8z2Mmwv1nFRvtHV/L/gmLT4opJ5YoYxmSV1jQe7HFMrpPCtkJbia9cZW3HlxZ6eYw5P4D+deVThzyUT77GYlYWhKs+n59Dq7O1js7W3to/uxIFJ/vN1LH6mp6KK9xKysj8rnJzk5S3YUUUUyQooooAKKK5/xD4o07QU2N+/vnXMVsjAEA9GlPYfzqZzjBc0mb4fD1MTUVKkrtm87xxqzyOqIoJZnYKqgdyTxWfb6/4furgWtvqVrJcHIVFcfMRxhSeCfoa8a1bXtY1mVnvLhvLzlLeMlYEHYBB/M5rPgS4kmgS3V2naRBCIgS5fPG0DnNebLH+9aK0PtaPCS9m3XqWl5bL1vv+B9D0VHbiYQW4mOZhFGJSOMybRuOPrUleofCNWdgooooEFFFFABRRRQAUUUUAFFFFABRRRQAVSvtW0jTfL+33kFuZD8gkb5m9wo5x74q7Xi/jRL5fEOpNdB9rshtmYEKYAgChO3HQ++a5sRWdGPMke1k2XQzGu6U5WSV/NnsNreWV7GJrS4hniP8ULq4B9Dip6+fLO+v7CZZ7O4lglUj5omIz7MOhH1FemeG/HNvqDRWWqhILtsLHOPlgmboAwP3Sfy+lZUcZGo7S0Z6GZcN18LF1KL54r71/n8vuO3oooruPlQooooAKKKKADrwa861mx+wX88SjEUh86D02Men4HivRawvE1kLmxNwo/e2h8zjqYzww/r+Fc2Jp88L9Ue5kmL+r4lRe0tP8jhq6jwpfFXnsHPDgzwZ7MOGUfzrl6ntLh7S6trlesMiuR6r0I/EV5dKfJNSPuMfhlisPKl1e3r0PT6KbG6SpHIhykiq6kdwwyDTq90/LGrOzCiiigRz+oReVdSYHyyYkH49aqVs6tFmOKUdUbafo1Y1cVRWkfT4Sp7Sin8grorCXzbWInqo8tvqvFc7WrpEn+viP+zIP5GqpO0jLMIc1K/Y1qKKK6z50KydXk/1EQ/2pD/If1rWrn9RffdzeibUH4DmsqrtE78vhzVr9ipRRRXIfRGzpMeIpZP777R9FrSqG0j8q2gTvsBP1PNTV3QVopHyuInz1ZSCiiiqMCC8uFtbW6uG6QxO4z6gcD868xZmdndiSzsXYnqSxya7PxXdeXZwWqn5rmTLf9c4+T+uK4uvLxk7z5ex95w7h+TDuq95P8F/wbhXo+j2f2LT7WEjEhXzZf8Aff5j+XT8K4fR7X7XqVnERlA/myemyP5jXo9Xg4bzOTiTE/Bh16v8l+oUUUV6J8cFFFFABRRVDV9UtdHsLm+uD8sS4RAfmkkbhUX6/wCelJtJXZdOnKrNQgrt6IyfFfiaLQrbyoCr6lcKfIQ8iJTx5rj09B3/AArx2ee4uZpZ7iR5ZpWLySSElmY9yTU2oX91qd5c3t0+6adyx9FHQKo9B0FdB4R8MPrU/wBrulK6bbvh+oNxIOfLU+n94/48eHUqTxNTljsfqmCwmHyTCOrVevV932X6feQeHvCepa6RMT9nsA2GuHGS+Oqwr3Pv0/lXqGk+G9C0YK1pbAzgYNxN88xzwcMeB+AFa0ccUMccUSKkUahERAFVVHAAAp1enRw0KS7s+EzLO8RjpNX5Ydl+vcKKKK6jwwooooAKKKKACiiigAooooAKKKKACiiigAqnqGmaZqkXk39tFOgzt3j5kJ4yjDkfnVyik0mrMuE5U5KUHZrseXeIfAdxZrLd6QXnt1BeS2fmeMDklCPvD9frXC8g4PBH6V9F15/408JrIkusaZEBKgL3sEY/1ijkyoo7j+L8/r5eJwiS56f3H3eS8RSnJYfFvfaX6P8Az+8j8F+LGcxaPqkuWOEsbiQ8nsIZGP8A46fwr0SvnQEgggkEEEEcEEdwa9j8HeIf7ZsfIuG/4mFmqrNnrNH0WUfyb3+tXg8Rzfu5b9Dn4jydUf8Aa6C0fxLt5/PqdRRRRXpHxIUUUUAFI6LIjxuMq6sjA9wwwRS0UDTtqjzC8tms7q5tmz+6kZVJ7r1U/lUFdL4stdlxa3ajiZDE5/205GfwP6VzVeFVhyTcT9UwOI+s4eFXq1r69Tu/DN19o05YmOXtXMR9dh+Zf8+1bdcP4WuvJv3gY/LdRkD/AK6J8w/TNdxXq4efNTXkfBZzh/YYuVtpa/f/AMG4UUUV0HjkF3H5ttOnfYSPqvIrm66vrXMTp5U00f8AddgPpnIrnrLZntZZPSUPmR1a0+Ty7qL0fMZ/4F0qrSqxVlYdVYN+RzWCdnc9SpHng49zqqKRWDKrDowBH4jNLXefIgTgE+gzXLSNvklf+87N+Zro7p/Ltrhu4jYD6ngVzVc1Z7I9rLI6SkFPiTzJYk/vOq/maZVvTk33cXogZz+AxWMVd2PTqy5IOXZHQdKKKK7z5IKKKRmCqzNwFBY/QDNAbnC+JrjztTeMHK20SRD03H52/n+lYlS3MxuLm6nPWaaST8CeKirwakuaTkfrGEo+woQpdkjq/CNsP9NuyP7tvH/6G39K6usvQLf7PpdmCMNKpnb6yHP+FalexQjy00j85zSv7fFzl0vb7tAooorY80KKKKACvJPHetnUNR/s+Fs2mnsytg8SXB4Zvw6D8fWvRfEeqDR9IvbwEedt8m2B7zSfKv5cn8K8LZmdmdiWZiWYnkkk5JJrzMdVslTR9vwrgFOcsXNbaL16v7vzL2j6ZcaxqFrYQ8GVsyPjIjiXlnP0Fe6WVna6fa21naoEhgQIg7nHVmPqeprk/AOjCz05tTmTFzqH+ryOUtlPy4/3jz+VdpWuDo8kOZ7s4OI8yeKxHsIP3Yfi+r/QKKKK7j5cKKKKACiiigAooooAKKKKACiiigAooooAKKKKACiiigAoIBBB5B4OaKKAPHvGmgDSL8XNsmLG+LPGAOIZerR/TuP/AK1Y2iarPo2pWl9FkrG22dB/y0hbh1P8x7ivZ9d0qLWdMu7JwN7IXt2P8E6jKHP6H614TJHJFJJFIpWSN2jdTwVZTtINeHiqbo1OaPU/UsjxscywjoV9WtH5p7M+hYJ4bmGC4hYNFPGksbDurDINSVw/w91Y3NjcaXK2ZbE+ZBk8m3kPT/gJ/mK7ivYpVFUgpI/OsfhJYPEToS6P8On4BRRRWhxBRRRQBk+Ibb7TpdzgZeDFwnr8nX9M15/XqkiLIkkbfddGQ/RhivLpomgmnhYYMUjxnP8AsnFeZjI2akfbcN1+anOi+jv9/wDww+1mNtc2s46wzRv+APIr09SGCspyGAIPqDzXlVei6JcfadMsZCcssYif/ej+Wng5auJPEtG8IVl00/VfqaNFFFekfFhWFqibbot/z0RW/L5a3aytXTi3k9CyH8eRWVVXid2Aly1ku5k0UUVyH0Z0di++1tz3C7T9V4qxWdpL5hlT+5Jn8GGa0a7YO8UfK4mPJVkvMpao221Yf33Rf6/0rBrX1dvkt09WZj+AxWRXPVfvHt5fG1FPuFaekLl7h/RVUfic1mVtaSuIJW/vSY/75GKVNXkVjpctB+Zo0UUV2HzYVR1ib7PpmoSA4Pksi/7z/IP51ern/Fc2zT4oh1nuEB/3UBY/ris6suWDZ25fS9riqcPNHE0+KMyywxDrJIkY+rECmVp6FD52q2K4yI3aZv8AtmCw/XFeJCPNJI/Tq9T2VKVTsmz0FEWNI414VFVF+ijAp1FFe+fkrd9WFFFFAgoopGZUV3YgKilmJ6AAZJoA8x+IupmW8s9LRvktU+0TAdDLIMKD9B/OuS0fT31TU7CxUHE8yiQj+GIfM549s03Vr1tR1LUb0n/j4uJHTPaPOEH5YrtPhvp4ebUtTdc+Uq2kBP8Aff53I/DA/GvB/wB4r/1sfrEmsoyrTdL/AMmf/BZ6RHHHFHHFGoWONFjRRwFVRgAU6iivePyhu+rCiiigQUUUUAFFFFABRRRQAUUUUAFFFFABRRRQAUUUUAFFFFABRRRQAV5H4+0sWWri8jXEOop5pwOBOnyv+fB/GvXK5jxxp4vtBuZFXM1gy3aHHOxflkH5En8K5cVT56b8tT3chxf1XGwb2lo/n/wbHmnhjUjpWtafckkRO/2e494pflJP04P4V7l1r50r3Tw3f/2loul3ROZPJEM3/XWL92354z+NcuAqbw+Z7/FuF+DEr0f5r9TXooor1D4MKKKKACuA8RQCHVbkgYWZY5h7lhgn8wa7+uR8XQ4k0+4A+8kkLH/dO4fzNcuLjenfse/kFXkxij/Mmv1/Q5euy8JTbrW8gJ5inDgf7Mi/4g1xtdD4Um2X88J6TW5I/wB6Mgj9Ca4MNK1RH1edUvaYKflr93/AO1ooor2T81CqWprutHPdGRv1xV2obpd9tcL6xt+gzUyV0zahLlqRfmc1RRRXCfVmnpDYknT1RW/I4/rWxWBpjbbtB/eV1/TNb9ddJ+6fPZhG1a/dGLqzZniX+7Hn8zWdV3Uzm7f2RB+mapVzz+Jns4VWoxXkFdBpy7bSH/a3N+Zrn66W1G23th/0yQ/mM1dHc48ydqaXmTUUUV1HhBXI+L5cy6dD/dSWU/8AAiF/pXXVwniiTfqjJ2hgiUf8CyxrlxTtTPeyCnz4xPsm/wBP1MSui8Jx7r26l/55W4UfV2/+tXO11/hGPEN/KR96WNAfZVyf51wYZXqI+szmpyYKfnZfezp6KKK9k/NQooooAKw/Fl79h0DVZA2Hlh+zR+7THyz+hNblcF8SbrZZaXZhuZriSdl9ViXaP1NYYiXJTkz08pofWMbSpva9/u1/Q8xr2zwhZCx0DTEK4knQ3UuRg7pjuGfwwK8as4GuruztlGTPPFCB/vsFr6CjjSKOKJBhI0WNR6Ko2iuDL4auR9fxdiLU6dBdW393/DjqKKK9Y/PQooooAKKKKACiiigAooooAKKKKACiiigAooooAKKKKACiiigAooooAKZNEk8U0MgBSWN43B6FWBUin0UDTad0fPd7bPZ3d5auDut55YTnr8jFc16L8Nr3dbapYM3MUyXUY/2ZBsb+Q/Oua8c2gtfEN26jC3ccNyPcsu1j+YNSeAbr7Pr8URbC3dvNAR6sB5i/yrwqP7rEW87H6pmNsflDqdeVS+a1f6nsFFFFe6flQUUUUAFYPiqPfpqyd4biNvwbKf1rerO1yPzdK1BQMkRb1+qENWVVXg0d2X1PZ4qnLzR51WloUvlatYH++7Rf99qVrNqa1kMN1aSjrHPE35MK8WDtJM/TMRT9pRnDumvwPUKKKK98/JQpGG5WX1BH58UtFAHKkYLD0JH5GkqW4G2e4X0lcfrUVeez7CLukya0bbc2x/6aKPz4rpa5aM4kiPo6H8iK6nI9a6aOzPFzNe9FnOXjb7mVv9z/ANBFV6c53Mx9cfyptc71Z7EI8sUgrqUG1I19EUfkMVzCDLxj1dR+Zrqa3o9Tyszfwr1Ciiiug8YK861x9+raif7sgT/vlQK9FrzLUH8y/wBQf1uZv0YrXDjH7qR9Tw1G9acuy/X/AIBWruvCybdLB/v3EzfhwK4WvQvD6bNIsPVkdz+Lsawwa/efI9XiKVsKl3kvyZqUUUV6p8CFFFFABXk/xFuDJrNtb5+W2so/waVmY/0r1ivEvGE/n+I9YbPEcqQD28qNUP65rhx0rU7d2fV8K0+fGuX8sX+iH+Dbb7T4i0oEfLC8lyfbykLD9cV7VXlfw4g36tf3GOILIp9DLIv+Br1SjAxtSv3YuKavPjeT+VL/ADCiiiu4+VCiiigAooooAKKKKACua13xnoGhb4XkNzer/wAutsQWU+kr/dX+ftXP+OPGslk0mj6RKBdYK3tyhyYM/wDLKM/3vU9vr08nZmZmZiWZiWYsSSSeSSTXLVr8ukT3sDlXtUqlbRdEdxf/ABL8SXJIs47ayj5xtTzZMe7Scf8AjtY7eNPGjNu/ti4B9FSEL+QTFc/VldO1Vl3LYXrL13LbzEfmFrk9pN9T344TDU1blX9ep0tn8Q/F9symWeG7QEbkuIUBI/3otprttE+I2i6gyQakn9n3DYAdm32zk/7eMj8R+NeOOkkbFJEZHHVXUqw+oPNJVRrTj1Mq2W4esvhs+6PpxWV1V0YMrAMrKQQQeQQRS14r4P8AGd1o00NhfyNLpMjBAWyz2hP8SHrt9R+Xv7QjxyIkkbK8bqHRlIKspGQQRXfTqKauj5TGYOeFnyy26MdRRRWhxBRRRQAUUUUAFFFFAHm/xLtsPot4B95J7Zj/ALpEi/zauN0O4NrrGjzg42Xtvk/7LOEb9Ca9J+IkHm6HDNjm2vYXJ9nVo/6ivJlZkZWU4ZWDA+hBzXh4v3K1/Rn6nw/JYjLFTfmv6+8+iqKitpRPbWsw6TQRSj6Ooapa9zc/LWnF2YUUUUCCobtd9peJ/et5l/NCKmoIDAg9CCD+NJ6qxUJcslLseUDjj04pc459MH8uadIpWSVT1WR1P4EimnvXz5+vp31PUoG3wW7f3oo2/NQakqppj+Zp2nP/AHraL/0ECrdfQRd0mfkVWPJUlHs2FFFFMzOdvhtu7gerA/mAarVc1MYu391Q/piqdcMviZ9XQd6UX5IK3/tA9awKseafU1UJcpliaPtbeRAeppKD1NFZnWSQDM0A9ZY//QhXT1zNsM3FsP8Apqn88101dNHZniZn8UUFFFFbnkhXltwc3F0fWeY/m5NeotwrH/ZP8q8sc5eQ+rsfzJNefjfsn1/DK1qv0/UbXpOkjbpmmj/p2jP5jNebetemacNthpw9LW3H/jgqMF8TOjiV/uYLz/QtUUUV6Z8QFFFFABXgetS+dq+sy/8APS/umH0MjV75Xzzctuubpv708rfm5NeZmD0ij7jhCN6lWXkv1/yPQvhpF8uuTeptYvyDt/WvRK4X4bLjTdVb+9eqPyiWu6rqwqtRieHn8ubMavy/JBRRRXSeGFFFFABRRRQAVh+KtaGhaNd3akfaZP8AR7Mf9N5AcNj0Xk/h71uV5T8U712u9I08H5IoZLpx6vI2wfoD+dZVZcsWztwFFV68YPbqecu7yO8jszO7M7sxyzMxySSa09C0PUNfvksrQAcb55nB8uCIHBdsfoO9Zde5+BNIj0vQbWUri61ELeXDEfNtYfu0+gH6k1w0qfPLU+sx+K+q0uaO70Ra0Twj4f0SNPJtknugB5l1cqHlZu+0HhR7D9a6DpRRXpKKirI+KqVJ1Jc03dmfqWi6Lq0TRX9lDMCDhyoWVT6pIvzA/jXj3i7wfceHpBc27PPpcz7Y5GHzwMeRHLjj6HvXuNVdQsbbUrK8sLld0N1E0T+oyOGHuDgj6VnUpKa8zsweOqYaa1vHqj5sr1v4a6611aT6LcOTLYr51oWOS1sxwU5/uk8ex9q8rvLaWyu7u0l/1ltPLA/bJjYrn8a2fBt69j4j0eQHCzTfZZfdJhs/wrgpScJn1WOorEYd/ej32iiivUPhQooooAKKKKACiiigDnvGkXm+G9VH9wQy/wDfEqtXite6eJl3eH9dH/TlMfyGa8LrxsevfT8j9J4SlfCzj2l+iPePD8vnaJocnXNhbKfqiBP6Vp1heEG3eG9EPpBIv/fMrrW7Xq03eCfkfA42PJiake0n+YUUUVocgUUUUAeYXo23l8vpczj8nNQVb1MbdR1Mf9Pc5/NyaqV4EviZ+uUXenF+S/I9F0M50nTfaED8iRWjWV4eOdIsfYSL+TsK1a9un8C9D8uxqtiai/vP8wooorQ5DD1Uf6UPeJP5kVQrQ1Yf6RGfWIfoTWfXFP4mfUYXWjH0Cn0yn1Juxh60UHqaKRRPaf8AH1bf9dBXSVzVp/x823/XRa6Wumjszw8z+OPoFFFFbnlCP9x/91v5V5Uep+pr1V/uP/ut/KvK2+83+8f5152N+yfY8M7Vfl+ohr06x/48rH/r2g/9AFeY16dYf8eNh/16wf8AoApYLdmvEv8ADp+rLFFFFekfEhRRRQA1yQkhHUIxH5V88y/62X/ff+Zr6Gf7j/7rfyr55l/1sv8A10f+Zry8w+z8z7zg/wD5ff8Abv6nqfw5AGj3h7m+fP4RpXa1xXw5P/EnvB6Xz/8AotK7WuzDfwonzWdf7/V9QoooroPICiiigAooooAK8X+Je/8A4SMZ+7/Z9rs+m6TNe0V5V8U7F1udI1ED5JYZLRz6Oh3r+hP5VhiFeB62USUcSk+qZ5tX0ppuz+ztM2fc+x2236eWuK+bK9x8BaxFqehW0Bb/AErTQtpOpPzFF/1b/Qjj6g1z4Z2bR6ud03KnGa6P8zrKKKK7z5QKKKqalf22l2N5f3LYhtomkPqxH3UX3JwB9aNhxi5NJbnhPi7Z/wAJL4g2fd+2P+e1c/rmqGkb/wC1dH2fe/tCz2/XzlqC7uZby6u7uU/vLmeWd+/zSMWIrb8GWL3/AIk0iMDKQTfa5fZIRv8A54FeT8U9D76X7nD+90X6HvlFFFesfABRRRQAUUUUAFFFFAGbrwB0XWgehsbn/wBANeDV7zrxxoutH/pxuP8A0A14NXkZh8SP0ThH+BU9V+R7T4KJPhvSs9hOB9POeuirnfBf/It6T9J//Rz10VelR/hx9EfFZl/vlX/FL82FFFFanAFFFFAHm2rf8hPU/wDr5l/nVKrmq/8AIS1P/r6m/wDQqp14E/iZ+tYb+DD0X5Hf+HP+QRZ/Wb/0Y1a9ZPh3/kEWX/bX/wBGNWtXt0vgj6H5lj/96q/4n+YUUUVocRjav/rof+uZ/nWbWjq/+uh/65n+dZ1cVT4mfT4P+DEKdTafUHSxh6mig9TRQMmtf+Pm2/66LXS1zNucT25/6ax/+hAV01dNHZnh5n8cfQKKKK3PKEblWHqDXlkg2ySr6SOPyYivVK8vuxtur1fS5nH/AI+a8/G7RPruGX71Ren6kPrXpemtu0/Tj62sH6IBXmlejaK27StNP/TAD/vkkVGD+JnVxKv3MH5/oaFFFFemfDhRRRQAV89XS7Lm7T+5PMv5ORX0LXgmtxGDWNZiP/LO/ulH08xsV5mYLSLPuOEJWqVY+S/X/M9B+GzZ03VU/u3qn/vqJf8ACu6rzr4aTca3b+htph+O9f6V6LXVhXejE8PP48uY1fl+SCiiiuk8MKKKKACiiigArE8UaKuu6Pd2Qx9oUfaLRj2njBKg+x5B+vtW3RSaurMunOVOSnHdHzJJHJE8kUiskkbMjowwyspwQQa0NF1rUNCvo76yYbgNksT58uaM9UcD9PSvSvG/gp9RZ9X0mMfbQubu3Xj7SAPvp23+vr9evkjo6M6OrK6MVdWBDKw4IIPNeZOEqcj7nD4iljKX5o940Txl4e1qNAtwlrdkDfbXTKjbu/lsflYfT8q6MMpGQQR6ggj86+Y6mW8vlXYt1cqvTas0gX8gcVtHEu2qPLq5JFu9OVl959Canr+haRE0l9fQxkAlYlYPM59FjX5q8e8WeLrvxFKsMStBpkDloYSfnlbp5k2OM+g7VyzMzEsxLMeSWJJP1JorOpXlPQ7MJllPDPnbuwr134baC1nZzazcIRPfr5dqGGCtspzu5/vH9B71zPg7wVc6tLBqOpRNHpaMHRHBV7wg5AUddnqe/b1HsqqiKqIoVEUKqqMBVAwAAK1w9J352cObY5W9hTfr/kLRRRXafMhRRRQAUUUUAFFFFAGR4nbZ4f11v+nKUf8AfQ214XXtPjSbyfDmqH/noIYf++5VFeLV42PfvpeR+k8JRthZy7y/RHt3hFdnhzRB6wO3/fUrtW7WZoERg0TRIz1FhbMfq6Bz/OtOvVpq0EvI+AxsufE1Jd5P8wooorQ5QooooA8z1Ft2oak3rdz/APoZqrUty265um/vTyn82NRV8/LVs/XaS5acV5I9C8Prt0iw91dvzcmtSqGjLt0rTB/07Rn8+av17tPSC9D8sxj5sRUf95/mFFFFWcpi6t/r4v8Arn/Ws6tDVj/pKD0iX9Saz64p/Ez6jCfwYhT6ZT6k3Y1hhiPp/KkqW4G2aQem3/0EVFQwi7xTHRnEkR9HQ/qK6muUHBB9CK6scgH1Arej1PIzNfC/UKKKK6DxwrzXVE2alqSelzIfzO6vSq898QJ5er3v+35cn/fSCuLGL3Ez6fhuVq8491+qMuvQPDr79Ish/c81D+Dk/wBa8/rt/Cj7tOkTvHcyfkwUiubCO1Q9niKPNhE+zX6m/RRRXrH5+FFFFABXinjKHyfEmrjHEjxTD38yJGP65r2uvJ/iJbmLWre4x8tzZx4/3omZT/SuHHK9O/mfVcK1OTGuPeL/AEY74czbNYvYc8TWLt9THIh/qa9WrxXwbdfZfEWlkn5Z2ktm9/NQqP1xXtVGBlelbsw4pp8mNUv5or9UFFFFdx8qFFFFABRRRQAUUUUAFc9rvhDQNeDyTw+ReEcXdsAshP8A00H3W/H866Gik4qSszSnUnSlzQdmeJ+IPAOp6Ja3OoJd29zZQbTIcNHMqs6xj5DkHkjvXHV7x46/5FXXf9y2/wDSmKvB686vBQlZH2OWYmpiKTlU3Tt+RveHfC+p+JHuRaS28UVqYhPJOzfL5m4rtVQSehr0rRPh5oWmsk98TqFyuComULboR6RZOfxJ+lZHwp/1fiP/AH9P/lNXpldFGnHlUmjx8zxtaNaVGMrJf5AAFAVQAAAAAMAAcYAFFFFdR4QUUUUAFFFFABRRRQAUUUUAcZ8RZvL0S3iB/wBffRKR7Ijv/hXlCKXdEXq7Ko+pOK9D+Jd1l9GswfurPcuP94iNf5NXF6Jbtd6vpFuBnzL23z/uq4dv0Brw8X79e3ofqeQL6vliqS83/X3Hu8EYigt4h0jijjH0VQtSUUV7h+Wt3d2FFFFAgpHYIjueiqzH8BmlqtqDiOxv3P8ADbTfmVIFJuyuXTjzzUe7PM2OWc+rMfzOaaeh+hoHQfSnKNzIv95lX8zivnz9e2PTLBPLsbFP7tvCP/HRVmmxrsjjT+6ir+QxTq+gSsrH5DUlzTcu7CiiimQYOpnN23siD9M1Sq1qJzeT+2wf+OiqtcMviZ9Vh1alH0QVN5bVDWr5PtRFXFWqclipqC7buUeoQ/8AjoFVav6quLlW/vRr+hIqhRPSTHh3elF+QV08B3QwN6xof0FcxXR2LbrS2P8AsY/IkVrR3Zw5mvci/MsUUUV0nhhXEeKo9moxSf8APa2Q/irFa7euU8XxcadMB3liY/kw/rXNilemz3MiqcmNiu6a/C/6HKV1nhCTjUYf9qKUfiCtcnW/4Vl2ajLH2mt2H4oQw/rXnYd2qI+wzin7TBVF5X+53O3ooor2j8zCiiigArgviTa77LS7wLzDcSQMfRZV3D9RXe1g+LrI3+ganGozJDGLqMe8J3n9M1hiI89OSPUyiv7DG0qj2vb79P1PGbOdra7s7hTgwTwyg+mxg1fQUbrIkcinKyIrqfUMMivnavbvCV99v0DTJGbMkMZtZcnndCdgz9Rg1wZfLVxPruLsPenTrro2vv8A+GN2iiivWPz0KKKKACiiigAooooAKKKKAOa8df8AIq67/uW3/pTFXg9e8eOv+RV13/ctv/SmKvB64MT8SPrck/gS9f0R6j8Kf9X4j/39P/lNXpleZ/Cn/V+I/wDf0/8AlNXpldND+Gjw80/3qfy/JBRRRWx5wUUUUAFFFFABRRRQAUUUyWRIYpZXOEiR5GJ7Ko3GgaV3ZHj/AI6uvtHiG7QNlbWKG3HsQu9h+ZNP8A2v2jX4pSuVtLeacn0Yjy1/nXOX1097eXt25Ja5nlmOeo3sSB+FehfDayKwarqDD/WyJaRH2Qb3/mK8Kj+9xF/O5+qZh/sOUOn1UVH5vR/qeg0UUV7p+VBRRRQAVleIJPL0m+9XVIh9WYCtWud8WS7bG3i/57XCk/RAW/wrKs7U2zvy2n7TF04+a/DU4urNhH519YRf37mIH6bgarVreHYvN1a09IxJKf8AgKnH64rxqavJI/ScVU9nQnPsn+R6BRRRXvH5OFFFFAHN3bbrq5P/AE0YflxUFOkO6SRvV2P602uB7n18FyxSFAyVHqQPzOK6byxXOQLungX1kT+ea6et6K3PIzKTTil5mRrC/Nbv6h1/LmsutrVlzBG392QD/voGsWs6vxHZgZXoIK3dLbdagf3Xcfh1rCrX0hvluE9GVvzGKdJ+8TmEb0W+xqUUUV1nzoVh+KIvM0tnxzBNFJ+BOw/zrcqrqUH2mwvoe7wSY/3gMis6keaDR14Kr7HEQqdmjzOr+jTeRqmnuTgGYRn6SAp/WqFKrFGVxwUYMMeoOa8OL5WmfqVamqtOVN9U1956rRUcEomggmHSWJJP++lBqSvoNz8jknF2YUUUUCCkdVdHRgCrqysD0IIwRS0UAfP+p2bWGoahZMD/AKNcSxDPdQ3yn8Rg13Pw21BQ2p6Y7cttvIAe5AEcgH/jpqp8RNM8i/tdTjXEd6nlTEdPOiHBP1GPyrl9E1FtK1TT74EhYplEoHeJ/lcfkTXgr/Z6/wDWx+sVEs3yrTdr/wAmX/BR71RSIyuqOhBV1DKR0IIyCKWvePyfYKKKKACiiigAooooAKKKKAOa8df8irrv+5bf+lMVeD17x46/5FXXf9y2/wDSmKvB64MT8SPrck/gS9f0R6j8Kf8AV+I/9/T/AOU1emV5n8Kf9X4j/wB/T/5TV6ZXTQ/ho8PNP96n8vyQUUUVsecFFFFABRRRQAUUUUAFc3411BbDQb1Q2Jb3FnEM84k++f8AvnP510leTfEHU/teqx2MbZi0+PawB48+TDN+QwK5sVU9nTfme3kWE+tY2Ce0dX8v+DY42vcvDFj/AGfoWlW5XEjQieUd/MmPmHP0zj8K8k8OaadV1jT7QjMXmCa49BDF87Z+vT8a90AAAAGAAAAOgArjwFPefyPouLcUrQwy/wAT/JfqFFFFeqfBBRRRQAVx3i2bdc2UAP8Aq4XkP1kbH9K7GvO9dn8/Vb5s8RuIV+kYC8VyYuVqdu59Dw9S58Xz/wAqf+Rm10vhGLddXs2P9XCkY+rtn+lc1XbeFINlhNMRzPO2P91BtH9a4sNG9RH0+eVfZ4KXnZf18joKKKK9g/NwpkzbYpm/uo5/Sn1Wv222lwfVdo/E4pSdlc0px5pqPdnO0UUVwH1pZsF3XduPQlv++RmuirD0pc3LN/cjY/mQK3K6qPwngZjK9W3ZFXUE32k/qoDj8DXPV1Eq745UP8SMv5jFcv049KistUzqy2V4Sj5hWhpT7bh1/vxn81Oaz6sWT7Lq3PYvtP8AwIbayi7SR3YiPNSkvI6Oiiiu4+VCjrwaKKAPMr+A217ewH/lnPIB/uk5BqtW/wCKrfyr+OcD5bmEZP8Atx/Kf0xWBXhVY8s2j9WwVb2+HhU7r8ev4nfeG7jz9LgUnLW7PAfXCnI/Q1sVx/hK52z3dox4lQTIP9pPlP6fyrsK9bDy5qaPz7N6HsMXNdHr94UUUVueUFFFFAGL4n0o6vo17aooM6AXFt/11j5AH1GR+NeHEFSVIIIJBB4II4wRX0XXkPjnRf7N1M3kKYtNRLSjA+VJx/rF/H7w+vtXmY6ldKoj7jhXH8spYOfXVevVfqdb4D1r7fpp0+Z83OnBUXJ5e2PCH/gP3fyrsa8F0XVrjRdQt76HnYds0faWJuGQ/wBK9ysry1v7W3vLZw8E6B0PfnqCPUdDW2Dre0hyvdHncRZa8LiHWgvcn+D6r9SxRRRXafMBRRRQAUUUUAFFFFAHNeOv+RV13/ctv/SmKvB6948df8irrv8AuW3/AKUxV4PXBifiR9bkn8CXr+iPUfhT/q/Ef+/p/wDKavTK8z+FP+r8R/7+n/ymr0yumh/DR4eaf71P5fkgooorY84KKKKACiiigAooo6cmgDO1vVItH028vpMFo02wqf45m4Rfz6/SvCJppbiaaeZi8s0jyyMerO53E11PjXxCNXvRZ2zZsLJ2CsOk03RpPoOi/wD16wtH02fV9Rs7CLP76QeYwH+riXl3P0FeJiqvtqnLHZH6jkOBWXYR16+kpavyS2/zPQPh3pLQWt3q0q4e7/cW2Rz5KHLMPqf/AEGu8qK3t4bWCC2gUJDBGkUajsqjAqWvWpU1Tgoo/PMwxksbiJ13129OgUUUVqcIUUUUARzyrBBPM3AijeQ5/wBkZry53aR3kb70jM7fVjmu68TXPkaa8YPz3TrCP937zf4fjXCV5mMleSj2PueG6HLRlVf2nb7gr0rSoPs2n2MJ6rChb/eb5jn868/0+3+1X1lBjIkmTd/uKdzfoK9MqsFHeRz8S1tIUV6/ov1CiiivRPjgrP1Z8QIn9+QfkozWhWPq75kgT+6jMf8AgRx/Ss6jtFnZgo81aJmUUUVxn0praQnFxJ7qg/ma1apaWm21U93dm/pV2u2mrRR8xi5c1aTCuZuU8u4nT0kbH0PNdNWHqqbbkP2kQH8RxUVlpc6ctnao490UKASpVh1Ug/lzRRXKe8dUjB0Rx0ZQ35jNLVTT5PMtYvVMofwNW674u6ufJVI8k3HsFFFFMzMLxRbedp3nAfNayLJ/wBvlb+lcNXqU8KXEM0Dj5JY2jb6MMZrzGaJ7eaaBxh4ZHjb6qcV5mMhaSl3PueHMRz0ZUXvF3+T/AOD+ZNp10bO+s7j+FJAH/wBxvlavTAQQCDkEAgjuDXlNeg6Befa9Ng3HMsH7iTPXKdD+IxTwc9XAy4kw14wxC6aP9DVooor0j4sKKKKACs/WNKtdZsLixuBxIN0T4y0Uo+66/StCik0pKzNKdSVKanB2a1R8+39jdabd3NldIVmgco3ow6hlPoeoro/CHig6NN9jvGJ024fJPJNvIePMA9D/ABD8fr3HivwxFrlv59uFTUrdCIXPAmQc+U5/ke3414/PBPbSywTxvFNExSSOQEMrDsQa8OpCeGqc0dj9TweKw+eYR06u/Vdn3X6fcfQsckUqRyxOrxyKHR0IZWU8gginV4v4f8W6noZEJzc2BOWt5GIMeTyYW7fTp/OvWtK1Sx1izivbN90b/K6tw8bjqjj1FepQxEay03Pgs0yevl0ry1h0f+fZl6iiiuk8UKKKKACiiigDmvHX/Iq67/uW3/pTFXg9e8eOv+RV13/ctv8A0pirweuDE/Ej63JP4EvX9Eeo/Cn/AFfiP/f0/wDlNXpleZ/Cn/V+I/8Af0/+U1emV00P4aPDzT/ep/L8kFFFFbHnBRRRQAUUU2SSKGOSWV1SONWeR3OFVVGSSTQNK+iHVwPjTxZHDHNpGmyhp5AY72dDkRKeDEhH8R7+n16ZniHx5c3Yms9IDQW5JR7o8TSr0/dj+EH8/pXCkkkkkkk5JPUmvKxOMTXJT+8+8yXh2UZLEYtbbR/V/wCX3gASQACSTgAckk17D4N8OjR7L7Tcp/xMLxVaTPWGI8rEPfu3/wBasPwZ4RYNDq+qREY2yWNvIOc9RNIp/wDHR+NejVeDw/L+8l8jHiPOFV/2Sg9F8T7+X+YUUUV6R8QFFFFABRRUc80dvDNPIcJEjSN9FGaNhxTk7I43xTd+dfR2ynK2sfzenmScn9MVz9STzPcTTzv9+aRpG/4Ec4qOvBqT55OR+rYPDrDUIUl0X49fxOj8J23mXdzdEfLBGI1P+3J1/QfrXZ1k+H7T7JpsG4YkuM3Enr8/3R+WK1q9fDw5KaR+e5tiPrGLnJbLRfIKKKK3PKCuev333c57KQg/4CMV0DMEVmPRVLH8BmuWZi7Ox6sxb8zmsKz0SPWy2F5SmJRRUkCeZNCn96RQfpmuY9qT5VdnRWyeXBAn92Nc/XGaloorvWh8jKXM22FZurR5iik7o+D9GrSqG7j823nTuUJH1HIpTV4tGuHn7OrGRzVFFFcJ9UaukSczxH2kH/oJ/pWtXO2MvlXMLHox2N9G4roq66TvGx89mFPlq83cKKKK1PPCuJ8U2fk3kd0o+S6XDe0qDB/MYrtqztZsft9hcRKMyoPNh/305x+PSsK9Png0eplWK+q4mM3s9H6P/Lc86rc8NX32W+MDnEV2AnPQSryp/mKw+e/XvSgspVlJDKQykdQQcgivIhJwkpI/RcTQjiaMqUtmj1WiqOlXyahZQTgjzANkw/uyLwfz6/jV6vdjJSV0flVWnKlN057rQKKKKZmFFFFABXP+IfC2m69GXbEF8i4iuUXJOOiyr3FdBRUyhGa5ZI3w+Iq4aoqtKVmjw7UPC/iPTpjFJYzSruASa2RpYnzwMFR+hAr0bwPo9/pOm3BvVaOW7nEogYfNEqrtG73PpXV0VzUsJGlPnTPbx+f18dh/YTil3a62/IKKKK6z50KKKKACiiigDmvHX/Iq67/uW3/pTFXg9e8eOv8AkVdd/wBy2/8ASmKvB64MT8SPrck/gS9f0R6j8Kf9X4j/AN/T/wCU1emV5n8Kf9X4j/39P/lNXpldND+Gjw80/wB6n8vyQUUUVsecFFFFABVHWLKTUdL1KyicJJc28kaMem48gH2PSr1FJq6sy6c3Tmpx3TueEjw74kNybQaXeecCAR5TbACcbt/3ce+a7/w54Gt7Bo7zVfLuLtSGjgHzQQkc5bP3j+n16129FcdPBwg7vU+jxvEmKxVP2cbQXW27/wAgooortPmQooooAKKKKACub8VX3l28Vih+e4IeXHaJTwD9T/KuikkSJJJJGCpGrO7HoFAyTXmuoXj395cXLZw7YjB/hjXhRXJiqnLDlW7PoMhwft8R7WW0Nfn0/wAyrVvTbQ317a2wHyu4aT2jX5mqpXYeFLEpFNfuPmm/dQ5/55qfmP4n+VefRp+0mkfY5livquGlU67L1f8AVzpgAoAAwAAAPQDiiiivbPy4KKKKAKmoyeXay+r4jH49a5+tTV5cvDCP4QXb6ngVl1yVXeR9FgKfJRv3Cr2lx77nf2jQn8TwKo1taTHthkkPWR8D6LxSpq8jTGT5KL89DRooorsPmQooooA5q6i8m4mj7BiV/wB08ioa1NXiw8MwHDAo31HIrLrhmrSaPqsPU9pSjIORgjqORXTW8gmhhk/vIM/Xoa5mtfSZspLCTyp3r9Dwa0pOzscuYU+anzLoalFFFdR8+FFFFAHBeItPNnfNKi4guyZEx0WT+Nf6/jWNXpGq2CajZzQHAkHzwsf4ZF6fn0Necujxu8cilXRijqeoYHBFePiaXJK62Z+i5LjvrVDkk/ejo/TozW0DUhYXeyVsW1yVSTPRH6K/9DXfV5TXaeHNWFzELGdv9IhX90xP+tjHb6it8JWt7j+R5uf5e5L61TW2/wDn/mdFRRRXonxgUUUUAFFFFABRRRQAUUUUAFFFFABRRRQBzXjr/kVdd/3Lb/0pirwevePHX/Iq67/uW3/pTFXg9cGJ+JH1uSfwJev6I9R+FP8Aq/Ef+/p/8pq9MrzP4U/6vxH/AL+n/wApq9Mrpofw0eHmn+9T+X5IKKKK2POCiiigAooooAKKKKACiiigAooooAKKKoarqUWm2rTNgytlII/77/4DvSlJRV2aUqU601TgrtmN4o1IKg06FvmfD3JHZOqp+PU//XrkafLLLNJJNKxaSRi7se5PNMrxKtR1JczP1DA4OODoqlH5+bJ7O1lvbmC2i+9KwBP91RyzH6CvS4YY7eGGGMYSJFRR7KMVg+GdNNvA17MuJrkARA9Uh6/r1roq9HC0uSPM92fGZ7jvrFb2UH7sfz6/5BRRRXWfPBRRVa+m8m2lYH5mGxfq3FJuyuXCLnJRXUw7qXzriaTsWIX/AHRwKhoorhbvqfWRiopRXQOvArprePyYYY/7qAH69TWFYxebcwrj5VO9vovNdFW9Fbs8fMqmsYfMKKKK6DyAooooAr3sPnW8qAfMBvX6rzXOV1dc5ew+RcSKB8rHen0bnFc9aPU9nLau9N+pXqe0m8i4ik/hztf/AHTwagorBOzuetKKnFxfU6uiqmnz+dboCfnj+Rvw6Grddyd1c+TqQdOTi+gUUUUyArlfE2lE51K3XkAC6VR2HAkx/OuqpCFYMrAFWBBBGQQeMEVnUpqpHlZ2YLFzwdZVYfPzR5VT4pJYZI5YnKSRsGRl6gitbXNHfTpTNCCbOVvlPXymPOxvb0rGrxZRcJWZ+m0K9PFUlUhqn/Vmeg6PrEOpRBWKpdxj97H03f7ae1ateWRSzQSRzQuySxncjKcEGu10nxDb3gWG6KQ3XABJxHKf9knofavRoYlS92e58ZmuSyoN1sOrx7dv+Ab1FFFdp8yFFFFABRRRQAUUUUAFFFFABRRRQBzXjr/kVdd/3Lb/ANKYq8Hr3jx1/wAirrv+5bf+lMVeD1wYn4kfW5J/Al6/oj1H4U/6vxH/AL+n/wApq9MrzP4U/wCr8R/7+n/ymr0yumh/DR4eaf71P5fkgooorY84KKKKACiiigAooooAKKKKACiis/UtWstNQmRg8xH7uFCN7H1PoKmUlFXZrSpTrTUKau2WL29trCB57hwqrwo/iduyqPWvPNQv7jUbhp5jgfdijH3Y09B/Wi/1C71GYzTtwMiONc7I19AP5mqleVXruo7LY/QMqyqOCjzz1m/w8kFa+haW2o3IeRT9kgYNKT0duojH9apWFhc6jcJbwj3kcj5Y07sf6V6LZ2kFjbxW0AwkY5Pdm7s3uaeHo875nsRnOZLC0/ZU377/AAXf/InAAAAAAAwAOgAooor1j89CiiigArG1WbdKkIPEY3N/vNWvJIsUckjdEUsfwrmJHaR3kb7zsWP41jWlZWPUy6lzTdR9BtFFKqs7KqjJYhR9TxXKe7sa+kw4SSYjlzsX/dXrWnTIYxDFHGOiKB9T3NPruiuVWPlK9T2tRzCiiiqMQooooAKz9Vg3wrMB80R5/wBw1oUjKrqysMqwKkex4qZLmVjWjUdKamuhytFSTxNBNJEf4TwfVTyDUdcOx9XGSkrot6fP5E6gn5JMI3sexroK5SugsLnz4QGP7yPCv7jsa6KMvsnkZjR2qr5luiiiug8YKKKKAGTQw3EUkMyB45FKurdCDXB6xos+muZI90lmx+R+pjJ/hk/oa7+kdEkVkdVZGBVlYAgg9iDWFaiqq13PTy/MamBneOsXuv66nlVFdRqvhh1Lz6aNy8lrcn5h/wBcyf5VzDq8bMjqyupwyuCGB9wa8mpTlTdpH6FhMbRxcOak/l1R0fh7WblZ4bC4dpIpTshZzlo2xwuT2NdlXn+gWU13qFtIqnybaRZZX6KCvKrn1NegV6WElJw1Pis/p0qeJXs92tfUKKKK6z58KKKKACiiigAooooAKKKKAOa8df8AIq67/uW3/pTFXg9e8eOv+RV13/ctv/SmKvB64MT8SPrck/gS9f0R6j8Kf9X4j/39P/lNXpleZ/Cn/V+I/wDf0/8AlNXpldND+Gjw80/3qfy/JBRRRWx5wUUUUAFFFFABRRRQAUUUUAYPiHVprCOK3t/luLhWbzO8aA4yB6ntXEO7yMzuzM7HLMxJYn1JNdX4rspnNvfRozJHGYp8c7BncrEenJrk8ivIxTk6jTP0XI6dKOEjKnu9+9wq1Y2F1qM4ht195HP3I19WNaGmeH72+KSTBre2ODuYYkcf7Cn+ZrtbS0tbKFYbaMIg64+8x9WPUmnRwznrLRGeZZ1TwydOj70/wX9diLTtOttNgEMIyxw0sh+9I3qf6Vcoor1UlFWR8FUqSqyc5u7YUUUUzMKKKZLKkMbyN0QZ+p7CgaTbsjN1afhLdT1w8n07CsmnSSPLI8j/AHnJJ9vam1wylzO59Th6So01AK0NLg8yYykfLEOP989Kz+TgDqeBXSWkAt4I0/iPzP8A7xq6cbswx1b2dOy3ZPRRRXWfOBRRRQAUUUUAFFFFAGbqlvvQTqPmjGH909fwrGrqyAwIIyCCCD3Brm7u3NtM6fwn5oz6qa5qsbPmPcy+vzR9k+mxBU9rcNbTLJ/CflkHqpqCisU7ao9OUVNOMtmdUrK6qynKsAQR3BpayNMu9pFtIeCf3RPYn+H/AArXrtjLmVz5evRdGbiwoooqjAKKKKACoJ7OxucG4toZSOQZEVj+Zqeik0nuVGcoO8XZjY4oYVCRRpGg6KihR+Qp1FFMTbbuwooooEFFFFABRRRQAUUUUAFFFFAHNeOv+RV13/ctv/SmKvB6948df8irrv8AuW3/AKUxV4PXBifiR9bkn8CXr+iPUfhT/q/Ef+/p/wDKavTK8z+FP+r8R/7+n/ymr0yumh/DR4eaf71P5fkgooorY84KKKKACiiigAooooAKKKKAAgEEEAgjBB5BHvVZdP01JDKlpbrIf4hGgP8AKrNFJpPcuNSUbqLtcKKKKZAUUUUAFFFFABWLqd15j+Qh+SM/OR/E/p+FXr+7FvHsQ/vZAQv+yP73+FYFc9Wf2Uevl+Hu/ay+QUUUqqzsqKMsxAA9zXOe1sXdNt/Nm81h8kRB+r9hW7UVtAtvCkY6gZY+rHqalrthHlR8xiq3tqjfToFFFFWcoUUUUAFFFFABRRRQAVWvbYXMJA/1iZaM+/p+NWaKTV1Zlwm4SUo7o5QggkEYIOCD2IorW1Kz63MY/wCuoH/oX+NZNcUouLsfUUa0a0OZB05HWt2wvROojkP75R/32B3Hv61hUqsyMrKSGU5BHUGnCTiycRh4142e/Q6qiqVlfJcAI+FmA5HZ/dau12Jpq6PmqlOVOXLJahRRRTMwooooAKKKKACiiigAooooAKKKKACiiigAooooA5rx1/yKuu/7lt/6UxV4PXvHjr/kVdd/3Lb/ANKYq8HrgxPxI+tyT+BL1/RHqPwp/wBX4j/39P8A5TV6ZXmfwp/1fiP/AH9P/lNXpldND+Gjw80/3qfy/JBRRRWx5wUUUUAFFFFABRRRQAUUUUAFFFFABRRRQAUUUUAFQ3NxHbRl25J4Re7Gi4uYrZC7nn+FR1Y+grn7i4luJDJIfZVHRR6CsqlTl0W53YTCus+aXwjZZZJpHkc5Zjn2A9BTKKK5D6JJJWQVr6Xa7R9pcctkRA9h3b8ap2NobmTLA+UhBc/3j/dFdAAAAAMADAA7Ct6UL+8zysfibL2Ud+oUUUV0niBRRRQAUUUUAFFFFABRRRQAUUUUABAIIPIPBrCv7I27GSMZhY/98E9j7Vu0jKrqysAVYYIPQionFSR04fESoSutupytFXb2xe2JdMtCT17p7GqVcbTTsz6WnUjUjzRegAlSCCQQcgjgg1r2mpg4juTg9BJ2P+9WRRTjJx2M61CFZWkdWCCAQQQeQRyDRXO2t5NbMMEtFn5kJ4+o966FHWREdeVZQw+hrrhNSPn8ThpUHrqhaKKKs5QooooAKKKKACiiigAooooAKKKKACiiigDmvHX/ACKuu/7lt/6UxV4PXvHjr/kVdd/3Lb/0pirweuDE/Ej63JP4EvX9Eeo/Cn/V+I/9/T/5TV6ZXmfwp/1fiP8A39P/AJTV6ZXTQ/ho8PNP96n8vyQUUUVsecFFFFABRRRQAUUUUAFFFFABRRRQAUUUUAFUrrUIYAVQh5emB0X/AHjVO/v5Gd4YSVRSVdh1Y+gPpWbXPOr0ievhsBdKdX7h8ssszl5GLMfyA9AKZRRXOeykkrIKmtreS5kCLwBy7dlFFvby3LhEHA+8x6KPeugt4IreMRxj3Ynqx9TWtOHNq9jixeKVFcsfiHRRRwxrHGMKv5k+pp9FFdex86227sKKKKBBRRRQAUUUUAFFFFABRRRQAUUUUAFFFFAAQrAqwBBGCDyCKx7zTWTdJbglOrR9Sv8Au1sUVMoqW5vRrzou8TlKK6C5sILjLAbJP7yjr/vCsmTT72M48suM8GPn9Otcsqbie9RxlOqt7PzKtdBp277JDnP8WM+mTWdb6ZcSMDMPLQYznG4+wFbaqqqqqMKoAAHYCtKUWndnFmFeEoqEXcWiiiug8cKKKKACiiigAooooAKKKKACiiigAooooA5rx1/yKuu/7lt/6UxV4PXvHjr/AJFXXf8Actv/AEpirweuDE/Ej63JP4EvX9Eeo/Cn/V+I/wDf0/8AlNXpleZ/Cn/V+I/9/T/5TV6ZXTQ/ho8PNP8Aep/L8kFFFFbHnBRRRQAUUUUAFFFFABRRRQAUUUUAFIc4bHXBx9aWigDlWzubPXcc/XNJWve6c7u00GCW5ZOnPqpqgLG+ZtvkuPdsAfma4nBp2PqKeJpzjzXsV6t2ljLckMcpFnlj1Psoq9baXGmHuCHbqEH3B9fWtIAAAAAAcADoK0hS6yOLEZgl7tL7xkMMUCBI1wo/Mn1Jp9FFdOx4rbk7sKKKKBBRRRQAUUUUAFFFFABRRRQAUUUUAFFFFABRRRQAUUUUAFFFFABRRRQAUUUUAFFFFABRRRQAUUUUAFFFFABRRRQAUUUUAc146/5FXXf9y2/9KYq8Hr3jx1/yKuu/7lt/6UxV4PXBifiR9bkn8CXr+iPUfhT/AKvxH/v6f/KavTK8z+FP+r8R/wC/p/8AKavTK6aH8NHh5p/vU/l+SCiiitjzgooooAKKKKACiiigAooooAKKKKACiiigAooooAKKKKACiiigAooooAKKKKACiiigAooooAKKKKACiiigAooooAKKKKACiiigAooooAKKKKACiiigAooooAKKKKACiiigAooooAKKKKACiiigDmvHX/Iq67/uW3/pTFXg9e8eOv8AkVdd/wBy2/8ASmKvB64MT8SPrck/gS9f0R6j8Kf9X4j/AN/T/wCU1emV5n8Kf9X4j/39P/lNXpldND+Gjw80/wB6n8vyQUUUVsecFFFFABRRRQAUUUUAFFFFABRRRQAUUUUAFFFFABRRRQAUUUUAFFFFABRRRQAUUUUAFFFFABRRRQAUUUUAFFFFABRRRQAUUUUAFFFFABRRRQAUUUUAFFFFABRRRQAUUUUAFFFFABRRRQAUUUUAc940huLjwzrUNvDLNM6W+yOFGkkbFxGTtVQTXif9h+Iv+gPqn/gFc/8AxFfRtFYVKKqO9z1MHmMsLBwUb3dzzv4ZWOoWUfiAXlpdWxkex8v7TDJFv2ibO3zAM4yM16JRRWkI8keU48TXeIquq1a4UUUVZzhRRRQAUUUUAFFFFABRRRQAUUUUAFFFFABRRRQAUUUUAFFFFABRRRQAUUUUAFFFFABRRRQB/9k=" vertex="1" parent="1">
          <mxGeometry x="320" y="80" width="100" height="107.59" as="geometry" />
        </mxCell>
        <mxCell id="DKp_g7tnoRcjDjKJbwzC-4" style="edgeStyle=orthogonalEdgeStyle;rounded=0;orthogonalLoop=1;jettySize=auto;html=1;entryX=0.5;entryY=1;entryDx=0;entryDy=0;strokeWidth=3;" edge="1" parent="1" source="DKp_g7tnoRcjDjKJbwzC-3" target="DKp_g7tnoRcjDjKJbwzC-2">
          <mxGeometry relative="1" as="geometry" />
        </mxCell>
        <mxCell id="DKp_g7tnoRcjDjKJbwzC-3" value="" style="image;points=[];aspect=fixed;html=1;align=center;shadow=0;dashed=0;image=img/lib/allied_telesis/media_converters/Industrial_Media_Converter_POE.svg;" vertex="1" parent="1">
          <mxGeometry x="520" y="100.22" width="30" height="57" as="geometry" />
        </mxCell>
        <mxCell id="DKp_g7tnoRcjDjKJbwzC-5" value="" style="image;html=1;image=img/lib/clip_art/networking/Wireless_Router_128x128.png" vertex="1" parent="1">
          <mxGeometry x="640" y="89" width="80" height="80" as="geometry" />
        </mxCell>
      </root>
    </mxGraphModel>
  </diagram>
</mxfile>
